<?xml version="1.0" encoding="UTF-8" standalone="no"?>
<!DOCTYPE svg PUBLIC "-//W3C//DTD SVG 1.1//EN" "http://www.w3.org/Graphics/SVG/1.1/DTD/svg11.dtd">
<svg xmlns="http://www.w3.org/2000/svg" version="1.1" viewBox="0.00 0.00 1454.00 231.00">
<path fill="#262966" d="
  M 1075.12 0.00
  L 1078.01 0.00
  Q 1088.56 1.62 1092.62 10.35
  C 1097.52 20.87 1092.18 34.04 1080.77 36.61
  C 1064.26 40.33 1052.15 22.91 1060.82 8.55
  Q 1065.35 1.04 1075.12 0.00
  Z"
/>
<path fill="#ec6535" d="
  M 43.85 228.26
  L 0.51 228.27
  A 0.34 0.34 0.0 0 1 0.19 227.82
  L 75.22 18.85
  A 0.34 0.34 0.0 0 1 75.54 18.62
  L 123.94 18.62
  A 0.34 0.34 0.0 0 1 124.26 18.85
  L 199.30 227.81
  A 0.34 0.34 0.0 0 1 198.98 228.27
  L 155.33 228.26
  A 0.34 0.34 0.0 0 1 155.01 228.03
  L 141.38 188.61
  A 0.34 0.34 0.0 0 0 141.06 188.38
  L 58.12 188.38
  A 0.34 0.34 0.0 0 0 57.80 188.61
  L 44.17 228.03
  A 0.34 0.34 0.0 0 1 43.85 228.26
  Z
  M 69.43 154.34
  A 0.34 0.34 0.0 0 0 69.75 154.79
  L 129.43 154.79
  A 0.34 0.34 0.0 0 0 129.75 154.34
  L 99.91 68.08
  A 0.34 0.34 0.0 0 0 99.27 68.08
  L 69.43 154.34
  Z"
/>
<path fill="#262966" d="
  M 960.45 206.09
  L 1032.97 206.09
  A 0.32 0.32 0.0 0 1 1033.29 206.41
  L 1033.30 227.95
  A 0.32 0.32 0.0 0 1 1032.98 228.27
  L 933.14 228.27
  A 0.32 0.32 0.0 0 1 932.82 227.95
  L 932.82 19.54
  A 0.32 0.32 0.0 0 1 933.14 19.22
  L 959.81 19.22
  A 0.32 0.32 0.0 0 1 960.13 19.54
  L 960.13 205.77
  A 0.32 0.32 0.0 0 0 960.45 206.09
  Z"
/>
<path fill="#ec6535" d="
  M 609.37 231.00
  L 605.50 231.00
  Q 602.97 230.67 600.42 230.50
  C 586.26 229.59 572.52 223.65 561.55 214.65
  C 547.59 203.20 538.32 186.51 534.40 168.94
  Q 530.50 151.50 532.39 132.68
  Q 534.71 109.53 546.86 91.43
  C 556.54 77.01 570.64 66.70 587.32 62.15
  C 601.97 58.15 619.78 58.42 634.17 64.27
  Q 650.68 70.97 661.94 85.17
  Q 662.49 85.86 662.49 84.98
  L 662.48 62.70
  Q 662.48 62.12 663.06 62.12
  L 704.06 62.12
  Q 704.75 62.12 704.75 62.81
  L 704.75 227.76
  Q 704.75 228.26 704.24 228.26
  L 663.00 228.26
  Q 662.48 228.26 662.48 227.75
  L 662.48 204.71
  A 0.22 0.22 0.0 0 0 662.08 204.58
  Q 644.86 227.11 615.95 230.25
  Q 612.68 230.61 609.37 231.00
  Z
  M 620.20 96.39
  C 610.20 95.82 599.07 99.27 591.51 105.64
  Q 577.23 117.68 574.99 137.31
  C 573.08 153.98 577.48 171.37 590.13 182.94
  C 602.20 193.99 619.13 197.04 634.31 191.04
  C 649.32 185.12 658.94 172.01 661.51 156.17
  C 663.85 141.73 661.90 125.60 653.27 113.99
  Q 641.05 97.58 620.20 96.39
  Z"
/>
<path fill="#ec6535" d="
  M 821.87 231.00
  L 816.00 231.00
  Q 811.51 230.53 807.03 230.07
  Q 787.94 228.10 772.44 218.64
  C 755.44 208.26 743.64 191.51 738.50 172.53
  Q 733.53 154.19 735.55 133.60
  C 739.53 92.90 766.82 63.75 808.35 59.97
  Q 818.21 59.07 827.87 59.97
  C 861.96 63.13 889.00 84.37 897.25 118.02
  Q 901.74 136.37 899.01 157.13
  Q 898.93 157.77 898.29 157.77
  L 778.03 157.77
  Q 777.54 157.77 777.58 158.26
  C 779.02 174.43 786.71 187.34 802.34 193.47
  Q 813.05 197.66 826.30 195.30
  C 835.86 193.59 843.86 187.74 848.80 179.32
  Q 849.62 177.94 850.38 176.60
  Q 850.66 176.12 851.21 176.12
  L 895.45 176.12
  A 0.31 0.31 0.0 0 1 895.75 176.52
  C 888.69 199.48 871.22 218.20 848.13 226.18
  Q 835.55 230.53 821.87 231.00
  Z
  M 811.17 94.39
  C 792.52 96.68 780.37 110.90 777.89 129.14
  Q 777.83 129.62 778.31 129.62
  L 856.22 129.62
  A 0.38 0.38 0.0 0 0 856.60 129.20
  C 856.20 125.73 856.07 122.29 855.03 118.98
  Q 851.95 109.16 844.10 103.05
  Q 829.99 92.06 811.17 94.39
  Z"
/>
<path fill="#ec6535" d="
  M 270.68 81.52
  C 272.18 79.91 273.51 78.07 275.11 76.59
  Q 290.00 62.74 309.98 60.36
  Q 328.11 58.21 344.56 64.01
  Q 366.06 71.59 377.15 91.11
  A 0.44 0.44 0.0 0 0 377.92 91.10
  Q 381.56 84.22 387.78 78.34
  C 404.68 62.38 427.16 56.91 449.85 61.09
  Q 472.14 65.21 486.15 81.05
  C 498.36 94.86 502.53 112.88 502.53 130.87
  Q 502.52 178.49 502.53 227.71
  Q 502.53 228.26 501.98 228.26
  L 461.22 228.26
  Q 460.56 228.26 460.56 227.61
  Q 460.57 182.25 460.56 137.51
  Q 460.56 127.76 458.11 119.61
  C 454.49 107.53 445.03 99.54 432.58 97.20
  C 421.83 95.19 408.99 96.70 400.42 103.23
  C 389.88 111.26 386.61 123.24 386.58 136.25
  Q 386.50 182.00 386.46 227.76
  Q 386.46 228.27 385.95 228.27
  L 345.03 228.26
  A 0.55 0.55 0.0 0 1 344.48 227.70
  Q 344.52 182.03 344.43 135.43
  Q 344.41 127.40 341.98 119.63
  C 336.03 100.56 317.76 93.97 299.28 97.07
  Q 278.80 100.51 272.50 119.90
  Q 270.05 127.42 270.05 138.36
  Q 270.02 184.35 270.04 227.70
  Q 270.04 228.26 269.48 228.26
  L 228.68 228.26
  Q 228.08 228.26 228.08 227.67
  L 228.09 62.33
  A 0.21 0.20 90.0 0 1 228.29 62.12
  L 269.45 62.12
  Q 270.03 62.12 270.03 62.70
  L 270.04 81.26
  Q 270.04 82.21 270.68 81.52
  Z"
/>
<path fill="#262966" d="
  M 1454.00 137.63
  L 1454.00 144.25
  L 1453.06 155.76
  Q 1453.02 156.27 1452.51 156.27
  L 1322.28 156.27
  Q 1321.75 156.27 1321.79 156.80
  C 1322.67 171.52 1327.93 185.16 1339.04 194.82
  Q 1354.76 208.48 1376.97 207.80
  C 1394.01 207.28 1408.37 200.67 1417.48 185.76
  C 1418.97 183.33 1419.89 180.74 1421.06 178.16
  A 0.96 0.95 11.7 0 1 1421.94 177.59
  L 1450.27 177.60
  A 0.28 0.28 0.0 0 1 1450.54 177.96
  C 1442.24 207.02 1417.69 226.95 1387.74 230.22
  Q 1383.22 230.71 1378.63 231.00
  L 1372.99 231.00
  Q 1369.91 230.59 1366.75 230.35
  Q 1342.51 228.57 1324.45 214.55
  C 1296.50 192.86 1289.21 154.95 1296.55 121.57
  Q 1298.83 111.23 1304.06 101.32
  Q 1319.34 72.38 1352.19 64.01
  Q 1367.32 60.16 1384.67 61.77
  C 1406.32 63.79 1426.27 73.98 1439.00 91.44
  Q 1451.74 108.90 1453.38 131.51
  Q 1453.60 134.59 1454.00 137.63
  Z
  M 1390.38 86.51
  C 1366.83 80.31 1343.04 87.15 1329.91 108.25
  Q 1323.57 118.44 1322.11 133.45
  Q 1322.04 134.09 1322.69 134.09
  L 1425.46 134.09
  Q 1425.69 134.09 1425.70 133.85
  C 1425.97 110.93 1412.46 92.32 1390.38 86.51
  Z"
/>
<path fill="#262966" d="
  M 1248.43 63.93
  L 1276.81 63.93
  A 0.33 0.33 0.0 0 1 1277.11 64.38
  L 1212.90 228.06
  A 0.33 0.33 0.0 0 1 1212.59 228.27
  L 1181.24 228.27
  A 0.33 0.33 0.0 0 1 1180.93 228.06
  L 1116.71 64.37
  A 0.33 0.33 0.0 0 1 1117.01 63.92
  L 1145.69 63.93
  A 0.33 0.33 0.0 0 1 1146.00 64.15
  L 1196.90 202.29
  A 0.33 0.33 0.0 0 0 1197.52 202.29
  L 1248.12 64.15
  A 0.33 0.33 0.0 0 1 1248.43 63.93
  Z"
/>
<rect fill="#262966" x="1062.48" y="63.93" width="27.26" height="164.34" rx="0.27"/>
</svg>
