<?xml version="1.0" encoding="UTF-8" standalone="no"?>
<!DOCTYPE svg PUBLIC "-//W3C//DTD SVG 1.1//EN" "http://www.w3.org/Graphics/SVG/1.1/DTD/svg11.dtd">
<svg xmlns="http://www.w3.org/2000/svg" version="1.1" viewBox="0.00 0.00 1454.00 231.00">
<path fill="#ffffff" d="
  M 1075.12 0.00
  L 1078.00 0.00
  Q 1089.35 1.59 1093.29 11.76
  Q 1094.92 15.97 1094.27 21.31
  C 1092.46 36.05 1074.79 42.15 1064.10 32.42
  C 1056.51 25.50 1055.83 13.70 1062.80 6.05
  Q 1067.47 0.92 1075.12 0.00
  Z"
/>
<path fill="#ec6535" d="
  M 0.00 226.89
  Q 0.00 226.79 0.00 226.69
  L 75.11 17.83
  A 0.88 0.88 0.0 0 1 75.94 17.25
  L 123.51 17.25
  Q 124.17 17.25 124.39 17.87
  L 199.36 226.65
  A 0.22 0.22 0.0 0 1 199.15 226.95
  L 155.54 226.95
  Q 155.11 226.95 154.97 226.54
  L 141.47 187.52
  Q 141.29 187.01 140.76 187.01
  L 58.45 187.01
  Q 57.89 187.01 57.70 187.55
  L 44.25 226.45
  Q 44.10 226.88 43.64 226.88
  L 0.00 226.89
  Z
  M 99.88 66.63
  A 0.31 0.31 0.0 0 0 99.30 66.63
  L 69.41 153.07
  A 0.31 0.31 0.0 0 0 69.71 153.48
  L 129.48 153.48
  A 0.31 0.31 0.0 0 0 129.78 153.07
  L 99.88 66.63
  Z"
/>
<path fill="#ffffff" d="
  M 960.44 206.12
  L 1032.96 206.12
  A 0.31 0.31 0.0 0 1 1033.27 206.43
  L 1033.27 227.95
  A 0.31 0.31 0.0 0 1 1032.96 228.26
  L 933.18 228.26
  A 0.31 0.31 0.0 0 1 932.87 227.95
  L 932.87 19.55
  A 0.31 0.31 0.0 0 1 933.18 19.24
  L 959.82 19.24
  A 0.31 0.31 0.0 0 1 960.13 19.55
  L 960.13 205.81
  A 0.31 0.31 0.0 0 0 960.44 206.12
  Z"
/>
<path fill="#ec6535" d="
  M 662.49 203.49
  Q 662.49 202.48 661.89 203.30
  C 649.53 220.38 629.22 229.45 608.29 229.52
  Q 575.64 229.64 553.85 205.91
  Q 543.45 194.58 537.71 178.84
  Q 530.30 158.50 532.16 133.91
  C 534.71 100.20 553.88 70.23 587.11 60.87
  Q 600.67 57.05 616.63 58.63
  C 634.61 60.42 651.02 69.79 661.98 83.94
  Q 662.49 84.59 662.49 83.77
  L 662.48 61.26
  Q 662.48 60.75 662.99 60.75
  L 704.25 60.75
  Q 704.75 60.75 704.75 61.25
  L 704.75 226.35
  Q 704.75 226.95 704.15 226.95
  L 663.22 226.95
  Q 662.48 226.95 662.48 226.22
  L 662.49 203.49
  Z
  M 623.81 192.34
  Q 636.11 190.85 645.60 183.13
  C 659.26 172.02 663.79 154.68 662.09 137.03
  C 660.92 124.92 656.05 113.67 647.07 105.78
  C 632.02 92.57 608.01 90.91 592.03 103.92
  Q 576.76 116.37 574.89 137.18
  Q 573.61 151.50 577.88 163.02
  C 585.13 182.55 602.92 194.87 623.81 192.34
  Z"
/>
<path fill="#ec6535" d="
  M 777.61 157.10
  Q 778.82 168.91 783.23 176.07
  Q 794.09 193.72 815.49 194.74
  Q 839.51 195.88 850.36 175.28
  Q 850.64 174.75 851.25 174.75
  L 895.24 174.75
  Q 895.87 174.75 895.68 175.36
  C 887.11 203.13 863.76 223.47 835.17 228.19
  Q 815.32 231.46 796.31 227.02
  C 767.46 220.28 746.09 199.43 738.42 170.92
  Q 733.58 152.94 735.51 132.57
  C 737.06 116.28 742.23 101.32 752.31 87.95
  C 772.87 60.71 810.11 53.36 841.55 60.96
  C 862.17 65.94 879.73 78.81 889.85 97.59
  Q 894.85 106.88 897.13 116.24
  Q 901.97 136.21 898.87 156.16
  A 0.35 0.34 -85.0 0 1 898.53 156.45
  L 778.20 156.45
  Q 777.54 156.45 777.61 157.10
  Z
  M 856.18 123.71
  C 853.76 100.89 829.94 89.43 809.14 93.32
  Q 790.88 96.74 782.36 113.24
  Q 779.08 119.57 777.89 127.78
  Q 777.83 128.25 778.30 128.25
  L 856.03 128.25
  Q 856.57 128.25 856.54 127.71
  Q 856.42 125.89 856.18 123.71
  Z"
/>
<path fill="#ec6535" d="
  M 377.14 89.78
  A 0.35 0.35 0.0 0 0 377.75 89.79
  C 383.23 80.64 390.15 73.72 398.97 68.36
  Q 420.71 55.14 448.29 59.48
  Q 471.53 63.13 486.54 80.14
  C 498.36 93.53 502.50 111.69 502.51 129.17
  Q 502.54 176.24 502.52 226.40
  Q 502.52 226.95 501.97 226.95
  L 460.96 226.95
  A 0.42 0.42 0.0 0 1 460.54 226.53
  Q 460.62 179.71 460.54 135.04
  C 460.50 115.07 452.01 98.64 430.52 95.51
  Q 423.20 94.44 416.10 95.61
  Q 395.30 99.06 388.92 118.37
  C 386.94 124.37 386.52 131.15 386.51 137.57
  Q 386.45 182.87 386.49 226.50
  A 0.45 0.45 0.0 0 1 386.04 226.95
  L 344.77 226.95
  A 0.28 0.28 0.0 0 1 344.49 226.67
  Q 344.50 180.24 344.45 135.00
  C 344.42 108.97 329.87 93.19 302.86 95.22
  C 288.77 96.27 277.13 104.20 272.70 117.87
  Q 270.13 125.80 270.11 134.73
  Q 269.95 186.84 270.06 226.64
  Q 270.07 226.95 269.75 226.95
  L 228.77 226.95
  Q 228.09 226.95 228.09 226.27
  L 228.09 60.96
  A 0.21 0.20 -90.0 0 1 228.29 60.75
  L 269.51 60.75
  Q 270.03 60.75 270.03 61.27
  L 270.03 79.97
  Q 270.03 81.00 270.68 80.20
  C 280.50 68.02 295.18 60.58 310.72 58.90
  C 337.16 56.05 363.75 65.92 377.14 89.78
  Z"
/>
<path fill="#ffffff" d="
  M 1454.00 137.63
  L 1454.00 144.24
  L 1453.06 155.75
  Q 1453.02 156.26 1452.51 156.26
  L 1322.28 156.26
  Q 1321.77 156.26 1321.79 156.77
  C 1323.29 187.70 1346.15 208.89 1377.38 207.81
  C 1397.63 207.11 1413.76 197.36 1421.11 178.06
  A 0.67 0.66 -79.8 0 1 1421.73 177.62
  L 1450.27 177.62
  A 0.30 0.29 -81.8 0 1 1450.55 178.00
  C 1442.13 206.82 1418.17 226.60 1388.49 230.09
  Q 1383.72 230.65 1378.87 231.00
  L 1373.00 231.00
  Q 1368.52 230.54 1364.02 230.06
  Q 1346.78 228.24 1332.82 220.09
  C 1313.16 208.61 1300.12 188.93 1295.91 166.74
  C 1289.10 130.90 1299.09 90.02 1333.17 71.42
  C 1352.57 60.83 1376.70 58.79 1397.52 64.03
  C 1421.29 70.01 1439.88 86.20 1448.54 109.10
  Q 1452.16 118.66 1453.18 130.02
  Q 1453.53 133.84 1454.00 137.63
  Z
  M 1322.06 133.61
  A 0.47 0.46 2.8 0 0 1322.53 134.12
  L 1425.21 134.12
  Q 1425.69 134.12 1425.70 133.64
  Q 1425.84 119.03 1418.96 107.51
  C 1407.61 88.50 1384.62 81.69 1363.47 85.26
  Q 1349.30 87.66 1338.18 97.95
  C 1328.20 107.20 1323.35 119.93 1322.06 133.61
  Z"
/>
<rect fill="#ffffff" x="1062.43" y="63.96" width="27.30" height="164.30" rx="0.27"/>
<path fill="#ffffff" d="
  M 1197.22 202.61
  A 0.23 0.23 0.0 0 0 1197.47 202.47
  L 1248.02 64.49
  Q 1248.21 63.96 1248.77 63.96
  L 1276.59 63.97
  Q 1277.25 63.97 1277.01 64.58
  L 1213.00 227.75
  Q 1212.80 228.26 1212.25 228.26
  L 1181.54 228.26
  A 0.75 0.74 -10.1 0 1 1180.84 227.78
  L 1116.80 64.55
  Q 1116.57 63.97 1117.20 63.97
  L 1145.29 63.96
  Q 1145.91 63.96 1146.12 64.54
  Q 1171.49 133.36 1196.91 202.36
  Q 1196.99 202.57 1197.22 202.61
  Z"
/>
</svg>
